<?xml version="1.0" encoding="UTF-8" standalone="no"?>
<svg
   xmlns:dc="http://purl.org/dc/elements/1.1/"
   xmlns:cc="http://creativecommons.org/ns#"
   xmlns:rdf="http://www.w3.org/1999/02/22-rdf-syntax-ns#"
   xmlns:svg="http://www.w3.org/2000/svg"
   xmlns="http://www.w3.org/2000/svg"
   version="1.1"
   id="svg2"
   height="744.09448"
   width="1052.3622">
  <defs
     id="defs4" />
  <metadata
     id="metadata7">
    <rdf:RDF>
      <cc:Work
         rdf:about="">
        <dc:format>image/svg+xml</dc:format>
        <dc:type
           rdf:resource="http://purl.org/dc/dcmitype/StillImage" />
        <dc:title></dc:title>
      </cc:Work>
    </rdf:RDF>
  </metadata>
  <g
     style="display:inline"
     transform="translate(0,-308.2677)"
     id="layer3">
    <g
       transform="translate(46.969697,281.81818)"
       id="g3900">
      <path
         style="fill:#ffa5ac;fill-opacity:1;display:inline"
         d="m 133.99527,63.63082 c 4.3797,0.0311 9.2924,0.34118 14.8126,0.9375 7.888,0.8521 18.3937,1.97804 23.3437,2.5 4.95,0.52195 12.375,1.3839 16.5,1.90625 11.406,1.44432 53.1973,5.52678 88.5,8.65625 31.1483,2.7612 44.6873,8.87001 51.1563,23 4.7536,10.38346 4.8674,15.86366 0.8437,45.40625 -0.7865,5.775 -1.9561,14.325 -2.5937,19 -0.6377,4.675 -1.2901,10.075 -1.4376,12 -0.1475,1.925 -0.8047,8.3758 -1.4687,14.34375 -0.8143,7.31965 -0.8701,11.19233 -0.1875,11.875 1.6675,1.6675 8.78,2.57287 26.125,3.34375 15.3347,0.68154 16.5988,0.88003 18.75,3.03125 1.2687,1.2687 2.3125,3.3861 2.3125,4.71875 0,4.68121 -1.8673,5.1517 -23.4063,5.6875 l -20.0937,0.5 -0.2813,12.71875 c -0.084,3.82229 -1.1892,10.78864 2.2813,17.8125 3.5386,7.16189 9.4376,14.93819 16.4687,24.125 3.8376,5.01414 8.0313,14.03038 8.0313,17.28125 0,3.74978 -1.9622,5.81272 -7.125,7.46875 -5.8414,1.87372 -9.9162,3.60862 -6.5937,10.5625 1.9688,4.12069 1.3076,6.84078 0.125,9.25 -1.6251,3.31048 -3.8974,5.27047 -5.2188,6.5 0.9716,1.817 1.4167,2.83434 2.4062,4.59375 2.2439,3.98943 -0.6901,5.04011 -3.5,8.5625 -2.9483,3.69611 -3.5006,4.34425 -3.125,13 0.5985,13.79205 -1.7478,24.5024 -7.1874,28.78125 -4.4486,3.49928 -13.2429,6.66482 -21.0938,4.6875 l -7.8438,-2 0.75,10.5 c 0.5696,7.89363 1.7257,11.75711 3.3126,14.78125 4.1214,-0.28178 5.8832,-1.26695 9.875,-3.21875 3.8142,-1.86489 6.8128,-3.85882 9.5,-2.21875 3.6473,2.22598 10.4577,6.93921 10.7187,11.15625 0.085,1.3674 -0.4934,4.88779 -8.4375,6.8125 -2.3208,0.56228 -4.5131,2.37226 -4.3125,3.03125 1.0949,3.59651 5.2335,7.77019 10.6875,12.46875 8.1239,6.99879 12.7049,12.00021 11.0625,12.90625 -0.7933,0.43765 -0.9016,2.84885 -2.0625,4.28125 -5.4794,6.76081 -9.87,4.0107 -20.7188,-8.03125 -3.5181,-3.90521 -12.8798,-9.00531 -17.4687,-10.3125 -2.7915,-0.79518 -3.5805,-0.28151 -2.7187,11.40625 0.2698,3.66012 1.2664,7.29033 1.5312,7.71875 0.2648,0.42841 2.6584,0.50184 5.3125,0.1875 l 4.8125,-0.5625 c 1.8544,1.96178 3.4307,7.17025 5.2188,8.5 6.3739,4.74003 10.3438,9.86826 13.1562,10.96875 5.6326,2.204 2.4807,4.35782 5.5312,9.875 3.4522,6.24372 5.1952,7.60001 9.8438,10.90625 4.4989,3.19978 8.0576,5.7632 9.75,9 2.8008,5.35647 2.0224,9.93208 -0.1875,15.71875 -1.4502,3.79723 -1.8378,6.81764 0,11.5 1.6135,4.11159 4.202,9.56006 9.9687,12.25 7.2999,3.40514 9.3124,11.13859 10.5938,17.96875 0.4737,2.52519 3.6132,4.9457 6.7188,8.375 3.891,4.29653 3.6349,7.28639 5.5624,13.8125 2.1607,7.31536 2.4253,10.85646 2.7813,14.40625 0.356,3.54979 1.285,8.22421 2.5,10.15625 4.1748,6.63838 3.2115,7.92615 -0.625,10.625 -1.7467,1.22876 -2.5,3.47871 -2.5,4.09375 0,0.61504 2.2008,2.89317 5.375,3.5 6.5712,1.25628 7.8531,8.24252 8.0937,11.15625 0.7597,9.19205 1.5961,11.53195 1.5313,15.81255 -0.036,2.3614 0.2202,7.3105 2.0625,10.2187 5.8865,9.2921 1.5294,9.5856 1.5,11.1875 -0.1046,5.6934 0.9354,6.2046 1.625,9.4062 0.6518,3.026 0.3107,7.7011 1.2812,10.125 2.1079,5.2653 -0.2969,8.1178 -4.9687,8.125 -4.4197,0.01 -4.3033,2.17 -4.5625,8.5938 -0.5856,14.5093 -6.1603,17.8522 -12.9375,17.9062 -1.375,0.011 -5.3063,-0.4082 -8.75,-0.9062 -5.9694,-0.8633 -13.7162,-3.1321 -77.25,-22.6875 -88.553,-27.2562 -99.2473,-27.8697 -114.0625,-62.9375 -3.3186,-7.85505 -9.0614,-15.79498 -13.0938,-20.75 -6.5003,-7.98768 -19.4465,-19.20369 -27.4062,-23.75 -2.1738,-1.24158 -4.6125,-2.78236 -5.4375,-3.4375 -0.825,-0.65514 -6.0516,-3.28181 -11.62501,-5.8125 -21.4494,-9.73941 -43.842804,-13.84462 -73.3125,-13.46875 -17.2178,0.2196 -18.9519,-0.40288 -22.3125,-8 -1.8408,-4.1616 -1.9662,-5.8398 -1.375,-16.65625 0.9239,-16.90082 1.4135,-22.10793 2.5625,-26.375 0.5511,-2.04644 1.8882,-8.89841 2.9688,-15.21875 6.295,-36.8219 20.5737,-73.4898 38.625,-99.3125 2.4937,-3.56744 7.121596,-9.35725 10.281196,-12.84375 8.935,-9.85946 11.2144,-13.25949 12.6875,-18.84375 0.7517,-2.84927 2.3448,-6.23693 3.5313,-7.5 1.430804,-1.52292 1.089604,-4.25913 1.562404,-8.125 0.3923,-3.20622 0.9523,-7.67281 2.4063,-9.03125 9.8245,-9.17889 0.7119,-16.59905 -5.406304,-27.4375 -12.3,-21.78942 -23.081696,-53.70125 -24.562396,-76.71875 -0.5053,-7.85426 -1.2567,-17.18655 3.718696,-34.6875 2.6158,-9.20064 2.1551,-14.83017 2.4687,-19.90625 0.066,-1.07484 -7.218696,-1.00992 -12.718696,-1.96875 -12.2443,-2.13459 -15.3537,-2.16975 -17.875,-5.375 -2.4812,-3.15438 -2.8904,-6.73188 -0.375,-9.6875 l 2.5625,-3 14.7188,2.15625 c 8.1038,1.1874 15.307896,1.95309 15.999996,1.6875 1.3539,-0.51956 2.0599,-7.24769 3.8124,-22.34375 0.6066,-5.225 1.7298,-14.45 2.5,-20.5 0.7701,-6.05 1.9039,-15.275 2.5313,-20.5 1.8496,-15.40442 3.934,-24.05805 7.625,-31.5 7.189104,-14.49504 16.365204,-20.04102 35.343714,-19.90625 z"
         id="path3857-1" />
      <path
         style="fill:#8dbdfc;fill-opacity:1;display:inline"
         d="m 829.73387,102.72322 c -3.2158,-0.82204 -7.7238,0.37013 -13.5812,0.4779 -9.2207,0.16968 -6.3864,1.26196 -8.5038,6.21684 l -2.14,4.97713 -9.4716,-1.43086 c -7.8539,-1.18423 -10.3048,-1.14094 -14.4919,0.2531 -4.034,1.34308 -6.2769,1.42062 -11.2264,0.36967 -9.6671,-2.05235 -27.6783,-7.84884 -33.7953,-10.86232 -3.0545,-1.50478 -8.5872,-3.6157 -12.2971,-4.68048 -7.0091,-2.01171 -6.5299,-2.05174 -15.3047,1.67811 -1.7083,0.72609 -6.6259,0.72234 -13.6675,-0.0195 -13.0851,-1.37858 -21.3949,-0.99998 -25.1669,1.18673 -1.5177,0.87985 -5.3555,4.16336 -8.5404,7.29515 -3.185,3.13178 -6.8225,6.66654 -8.1193,6.36216 -3.5222,-0.82677 -7.3546,3.7038 -11.8717,7.03686 -8.6122,6.35459 -11.0259,7.31602 -13.7079,6.80775 -5.2854,-1.00167 -6.4104,0.67514 -7.338,1.76809 -2.0862,2.45829 -9.2921,2.67872 -28.6269,6.36344 -4.3939,0.83735 -12.1622,2.76721 -17.265,4.29758 -5.1028,1.53035 -11.8019,3.20064 -14.8743,3.7178 -14.1084,2.37495 -16.0307,3.30125 -21.3602,10.36196 -6.482,8.58791 -6.8777,10.68786 -2.7094,14.15196 1.0756,0.89393 1.8598,2.07798 1.7415,2.63676 -0.1184,0.55876 -3.1046,2.71351 -6.6367,4.79148 -4.1161,2.42155 -6.5926,4.58311 -6.8892,5.9838 -0.2545,1.20198 0.7671,5.06575 2.2687,8.59399 1.5016,3.52827 2.6429,6.82736 2.5342,7.34054 -0.237,1.11904 -10.1996,4.90371 -11.9846,4.55334 -2.9968,-0.58823 -76.5038,17.74008 -79.3184,19.77735 -2.337,1.69167 -6.741,11.17729 -6.3447,13.66961 0.4404,2.7686 3.3951,2.53306 14.1646,-1.12099 5.6909,-1.93085 15.0083,-4.73409 20.7067,-6.21999 9.4568,-2.466 45.6965,-9.56459 59.786,-11.71152 3.1952,-0.48687 9.6152,-1.47966 14.2689,-2.2169 10.9075,-1.728 17.4632,-0.85676 20.8112,1.88375 3.9164,3.20572 4.5709,5.63924 4.4512,11.26025 -0.06,2.83617 1.0466,12.2546 1.941,17.53252 2.0193,11.9149 -0.9517,20.99518 -4.036,27.95792 -2.5728,5.80804 -8.6802,16.81926 -10.2932,18.13597 -1.8636,1.52124 -5.7819,9.39054 -5.6875,11.92414 0.151,4.06023 4.8173,5.13893 16.0495,6.72092 7.01,0.98733 10.0667,1.48433 12.6898,1.92074 -2.4177,10.05427 -6.6665,17.16049 3.9839,21.15945 -1.042,5.87489 2.0116,7.82931 5.4907,11.48038 1.8845,2.02881 1.3537,2.85465 -0.3781,13.39991 -1.5974,9.72783 -2.5071,14.95423 3.3796,17.67748 2.7583,1.27596 4.4564,2.52477 13.7596,3.8083 28.3507,3.91144 35.3593,6.03487 43.4107,15.83735 1.8757,2.28359 4.0648,11.59539 3.3863,14.93177 -0.7114,3.49889 -7.4217,4.33 -17.684,3.41028 -9.9278,-0.88977 -11.7836,-0.10771 -12.8249,7.31416 -1.1154,7.95129 -4.5295,16.81633 -16.2878,17.6331 -5.627,0.39088 -7.7843,3.59064 -7.6053,5.89604 0.1617,2.08184 -3.5291,4.86872 -5.7691,6.12515 -8.5759,4.81005 -11.117,8.39104 -11.9801,23.68819 -0.4341,7.69427 -4.0012,14.00483 -4.6445,14.54076 -0.6433,0.53592 -3.7801,1.36188 -6.9493,0.98795 -9.2916,-1.09631 -13.6782,-2.75338 -13.9239,5.86758 -0.1023,3.58541 -5.8132,8.67965 -10.4335,11.55792 -2.9261,1.82289 -10.1087,11.58679 -10.1252,13.57176 -0.066,7.96426 -5.2153,18.2476 -6.1397,25.37222 -0.8285,6.38489 0.5951,11.74581 -3.7638,14.1523 -6.7102,3.70472 -3.1393,8.57213 -5.9925,13.96779 -1.9773,3.73932 -7.9814,8.35339 -2.3126,10.46671 l 2.8388,4.24269 c 1.5628,2.34108 4.8445,6.14204 7.5452,8.11425 4.3547,3.18019 8.6753,4.13772 6.2441,9.88308 -3.3143,7.83248 4.5605,10.964 11.1195,12.35302 4.6232,0.97906 7.8721,2.76246 14.9903,8.25344 0.7249,0.55921 1.1799,2.3254 0.9916,3.91539 -0.8378,7.0759 -4.3142,7.1462 -2.0567,10.6167 3.4207,5.25883 9.9196,9.22783 15.3694,8.87683 3.7561,-0.2418 4.6154,-0.026 5.0972,1.2711 0.8075,2.1739 -0.3885,7.3143 -3.195,13.7297 -3.4155,7.8077 -2.5718,8.7759 12.984,14.4089 3.3048,1.1968 4.3045,1.059 7.6783,-0.9614 4.4252,-2.65 5.2348,-2.6021 9.6481,0.4462 4.9826,3.4416 12.1987,4.6053 15.1662,2.4451 1.3462,-0.9798 2.8652,-2.4981 3.3968,-3.3693 0.5318,-0.8714 1.6204,-1.4457 2.4109,-1.2783 3.1467,0.6664 12.6566,20.5357 14.921,31.2058 2.9867,14.0736 3.5063,15.628 5.4209,16.0335 1.0849,0.2298 3.2043,-0.3971 4.7351,-1.393 2.4604,-1.6003 3.1286,-3.031 5.68,-12.341 8.0875,-29.5106 19.0007,-47.4466 40.1617,-68.22203 22.7758,-22.36109 56.4074,-39.77837 83.0797,-44.02422 14.1461,-2.25187 14.1393,-2.21357 17.1376,-5.50643 2.4382,-2.67774 2.4453,-2.8205 1.3802,-8.77955 -1.0301,-5.76276 -0.8058,-7.29459 4.5187,-33.25407 3.6772,-17.9281 3.3534,-30.92559 5.7053,-30.8626 1.5097,0.0404 2.7511,7.75429 4.6325,10.40424 1.8814,2.64995 6.2505,4.96097 8.9306,7.00214 2.68,2.04113 5.5514,4.93269 5.7425,5.46452 0.6659,1.85377 6.8087,2.31816 10.5635,0.79963 6.2002,-2.50742 6.5021,-5.04028 5.9404,-14.7774 -0.5498,-9.53301 0.5935,-22.85798 1.7543,-28.3453 1.6093,-7.60338 -2.2049,-13.97395 -5.8646,-21.78135 -1.4628,-3.12077 -3.7404,-8.89286 -5.0464,-12.82374 -1.306,-3.93085 -2.9396,-8.52245 -3.6237,-10.19059 -0.6839,-1.66812 -1.185,-3.30315 -1.1174,-3.6226 0.17,-0.80293 -5.0822,-13.8782 -7.558,-18.91371 -6.1579,-12.5249 -12.2213,-26.06609 -13.8029,-28.19004 -2.837,-3.81001 -10.1171,-14.82368 -9.256,-18.88998 0.4517,-2.13249 6.6299,-8.10519 12.6245,-5.31224 4.9864,2.32321 11.7306,-0.99755 14.3955,-3.11644 0.9688,-0.7703 5.263,-2.7091 9.5364,-4.30519 13.0756,-4.8837 18.9761,-6.97416 20.9448,-16.99826 0.8639,-2.20344 -0.6352,-9.04346 2.7512,-8.61697 3.6315,0.15594 1.9786,9.04679 3.4926,14.7307 0.6547,2.45794 1.8205,4.90378 2.5929,5.40444 1.9555,1.26756 16.2054,-0.85776 18.4734,-2.76393 1.0259,-0.86221 2.7163,-4.88553 3.4784,-5.71587 1.2555,-1.36758 1.6097,1.35262 5.8206,3.43671 5.447,2.69588 9.8678,3.10899 14.172,-0.70415 2.3223,-2.05716 2.5208,-2.62964 1.9463,-5.7209 -0.351,-1.88948 -2.039,-8.69393 -2.7643,-14.09732 -0.7253,-5.40337 -1.6334,-10.42548 -2.013,-11.15915 -0.9598,-1.85458 -6.299,-31.94828 -5.9261,-33.70913 0.1674,-0.79002 1.3654,-1.8463 1.6495,-1.15202 1.3473,3.29173 4.6976,10.45718 7.5321,19.036 0.7989,2.41797 2.1302,5.48622 4.5656,9.8151 1.3407,4.76515 3.5063,8.62959 4.0063,10.49523 2.6174,9.76696 7.0027,12.22524 13.0916,9.22493 3.5855,-1.76673 4.5416,-5.07069 2.353,-8.09438 -0.8705,-1.20253 -2.5569,-5.42709 -3.7614,-9.38923 -1.2044,-3.96216 -2.8062,-8.25422 -3.5391,-9.53383 -0.7328,-1.27958 -2.4802,-6.01944 -3.9016,-10.53695 -6.4649,-20.54746 -19.5454,-51.22111 -32.2662,-75.70233 -5.7294,-11.02611 -10.1937,-27.22207 -12.3494,-39.12617 -1.5572,-8.59905 -1.3579,-14.5287 -2.1464,-16.71356 0.1928,-0.61608 5.1309,-0.69764 8.7213,-1.05989 10.5585,-1.06527 23.6128,-2.06695 32.4754,-2.51386 19.8564,-1.0013 37.991,-3.25448 39.3668,-4.88763 3.0712,-3.64554 -1.1944,-11.52884 -6.8862,-12.7342 -3.5649,-0.75496 -24.4995,0.43522 -56.5216,3.23518 -7.7328,0.67615 -15.6819,0.89539 -17.6692,0.47463 -4.866,-1.0303 -6.4317,-4.24782 -4.1987,-9.7374 2.3656,-5.81562 2.2427,-10.35822 -5.1511,-12.78202 -4.5146,-1.47996 -4.7347,-3.62428 -3.8362,-6.01913 3.227,-8.60133 -5.8343,-19.67767 -16.053,-19.97802 -3.2046,-0.0942 -6.0467,0.1125 -7.6113,-3.87983 -1.0202,-2.60291 -2.4898,-3.82862 -4.4193,-4.32185 z"
         id="path3848-9" />
    </g>
  </g>
</svg>
